<svg width="100" height="100" viewBox="0 0 100 100" xmlns="http://www.w3.org/2000/svg">
  <path fill="none" stroke="currentColor" stroke-width="1" d="M0,0 L100,100 M0,20 L80,100 M20,0 L100,80 M0,40 L60,100 M40,0 L100,60 M0,60 L40,100 M60,0 L100,40 M0,80 L20,100 M80,0 L100,20 M0,100 L0,100 M100,0 L100,0" />
  <circle cx="25" cy="25" r="2" fill="currentColor" />
  <circle cx="75" cy="75" r="2" fill="currentColor" />
  <circle cx="75" cy="25" r="2" fill="currentColor" />
  <circle cx="25" cy="75" r="2" fill="currentColor" />
  <circle cx="50" cy="50" r="2" fill="currentColor" />
</svg>
